<?xml version="1.0" encoding="UTF-8" standalone="no"?>
<!-- Created with Inkscape (http://www.inkscape.org/) -->

<svg
   width="116.45428mm"
   height="19.313816mm"
   viewBox="-14 -7 169.41966 28.098068"
   version="1.1"
   id="svg5"
   sodipodi:docname="logo.svg"
   xmlns:inkscape="http://www.inkscape.org/namespaces/inkscape"
   xmlns:sodipodi="http://sodipodi.sourceforge.net/DTD/sodipodi-0.dtd"
   xmlns="http://www.w3.org/2000/svg"
   xmlns:svg="http://www.w3.org/2000/svg">
  <sodipodi:namedview
     id="namedview504"
     pagecolor="#ffffff"
     bordercolor="#666666"
     borderopacity="1.0"
     inkscape:showpageshadow="2"
     inkscape:pageopacity="0.0"
     inkscape:pagecheckerboard="0"
     inkscape:deskcolor="#d1d1d1"
     inkscape:document-units="mm"
     showgrid="false" />
  <defs
     id="defs2" />
  <g
     id="layer1"
     transform="translate(-34.754512,-106.02311)">
    <path
       id="rect10257"
       style="color:#000000;overflow:visible;fill:#6b8000;fill-opacity:1;stroke:none;stroke-width:3.565;stroke-linejoin:round;stroke-dasharray:none;stop-color:#000000"
       d="m 20.754512,99.062596 v 28.058584 h 8.118662 c -0.688289,-1.80874 -0.866497,-3.3343 -0.505208,-4.71828 0.542273,-2.07729 2.29616,-3.24666 4.01535,-3.97626 3.438377,-1.45924 7.450098,-2.08778 9.244103,-4.57167 0.831351,-1.15106 0.77301,-2.08502 0.291697,-3.46128 -0.481316,-1.37625 -1.499786,-2.9592 -2.383198,-4.58371 -0.883411,-1.62452 -1.784763,-3.43718 -1.182578,-5.45955 0.138126,-0.463883 0.35327,-0.891426 0.637525,-1.287834 z"
       inkscape:export-filename="logo.svg"
       inkscape:export-xdpi="300"
       inkscape:export-ydpi="300" />
    <path
       id="rect14650"
       style="overflow:visible;fill:#5d7000;fill-opacity:1;stroke:#ffffff;stroke-width:0.999998;stroke-linejoin:round;stroke-dasharray:none;stop-color:#000000"
       d="m 33.364023,112.68093 -0.07645,3.30523 -2.252199,-2.99207 -6.367672,0.98972 c -0.472973,0.0735 -0.863916,-0.38538 -0.863916,-0.86404 v -6.29711 c 0,-0.47866 0.390872,-0.79115 0.863916,-0.86425 l 9.963962,-1.53968 c 0.478658,0 0.863916,0.38559 0.863916,0.86425 v 6.33094 c 0,0.47866 -0.34894,0.68299 -0.863916,0.86424 z" />
    <circle
       style="color:#000000;overflow:visible;fill:#ffffff;stroke:none;stroke-width:3.565;stroke-linejoin:round;stroke-dasharray:none;stop-color:#000000"
       id="path14644"
       cx="26.524481"
       cy="110.13368"
       r="0.745933" />
    <circle
       style="color:#000000;overflow:visible;fill:#ffffff;stroke:none;stroke-width:3.565;stroke-linejoin:round;stroke-dasharray:none;stop-color:#000000"
       id="circle14646"
       cx="29.437943"
       cy="109.67954"
       r="0.745933" />
    <circle
       style="color:#000000;overflow:visible;fill:#ffffff;stroke:none;stroke-width:3.565;stroke-linejoin:round;stroke-dasharray:none;stop-color:#000000"
       id="circle14648"
       r="0.745933"
       cy="109.1745"
       cx="32.691914" />
    <g
       aria-label="StreetCritic"
       id="text18288"
       style="font-weight:bold;font-size:25.4px;line-height:125%;font-family:'Nimbus Sans';-inkscape-font-specification:'Nimbus Sans Bold';letter-spacing:0px;word-spacing:0px;opacity:1;vector-effect:none;fill:#5d7000;stroke-width:3.565;stroke-linejoin:round;stop-color:#000000;stop-opacity:1">
      <path
         d="m 69.727393,109.86682 c -0.0254,-3.8354 -2.5908,-5.9436 -7.2644,-5.9436 -4.445,0 -7.0104,2.0828 -7.0104,5.6896 0,2.8702 1.4478,4.2672 5.207,4.9784 l 2.5908,0.508 c 2.54,0.4826 3.4798,1.1938 3.4798,2.6924 0,1.5494 -1.4224,2.4892 -3.7338,2.4892 -2.5908,0 -4.0386,-1.0922 -4.1656,-3.0734 h -3.7084 c 0.2286,3.9624 2.9464,6.1214 7.6708,6.1214 4.7752,0 7.5946,-2.2098 7.5946,-5.9944 0,-2.921 -1.4732,-4.445 -4.9022,-5.1054 l -2.8956,-0.5588 c -2.7178,-0.5334 -3.5052,-1.0668 -3.5052,-2.413 0,-1.397 1.2192,-2.286 3.2004,-2.286 2.413,0 3.7592,1.016 3.8862,2.8956 z"
         style="vector-effect:none;stop-color:#000000;stop-opacity:1"
         id="path796" />
      <path
         d="m 78.896788,109.30802 h -1.9812 v -3.683 h -3.555999 v 3.683 h -1.7526 v 2.3622 h 1.7526 v 8.4328 c 0,2.159 1.143,3.2258 3.479799,3.2258 0.8128,0 1.397,-0.0762 2.0574,-0.2794 v -2.4892 c -0.3556,0.0508 -0.5334,0.0762 -0.8128,0.0762 -0.9398,0 -1.1684,-0.2794 -1.1684,-1.4986 v -7.4676 h 1.9812 z"
         style="vector-effect:none;stop-color:#000000;stop-opacity:1"
         id="path798" />
      <path
         d="m 81.309793,109.02862 v 13.716 h 3.556 v -7.2898 c 0,-2.0828 1.0414,-3.1242 3.1242,-3.1242 0.381,0 0.635,0.0254 1.1176,0.1016 v -3.6068 c -0.2032,-0.0254 -0.2794,-0.0254 -0.4318,-0.0254 -1.6256,0 -3.0226,1.0668 -3.81,2.921 v -2.6924 z"
         style="vector-effect:none;stop-color:#000000;stop-opacity:1"
         id="path800" />
      <path
         d="m 103.00138,117.00422 c 0.0254,-0.3048 0.0254,-0.4318 0.0254,-0.6096 0,-1.3716 -0.2032,-2.6416 -0.5334,-3.6068 -0.9144,-2.4892 -3.124196,-3.9878 -5.892796,-3.9878 -3.937,0 -6.35,2.8448 -6.35,7.4422 0,4.3942 2.3876,7.0866 6.2738,7.0866 3.0734,0 5.562596,-1.7272 6.349996,-4.445 h -3.505196 c -0.4318,1.0922 -1.4224,1.7272 -2.7178,1.7272 -1.016,0 -1.8288,-0.4318 -2.3368,-1.1938 -0.3302,-0.508 -0.4572,-1.1176 -0.508,-2.413 z m -9.143996,-2.3622 c 0.2286,-2.1082 1.1176,-3.1242 2.6924,-3.1242 1.6256,0 2.5908,1.0922 2.7686,3.1242 z"
         style="vector-effect:none;stop-color:#000000;stop-opacity:1"
         id="path802" />
      <path
         d="m 117.12378,117.00422 c 0.0254,-0.3048 0.0254,-0.4318 0.0254,-0.6096 0,-1.3716 -0.2032,-2.6416 -0.5334,-3.6068 -0.9144,-2.4892 -3.1242,-3.9878 -5.8928,-3.9878 -3.937,0 -6.35,2.8448 -6.35,7.4422 0,4.3942 2.3876,7.0866 6.2738,7.0866 3.0734,0 5.5626,-1.7272 6.35,-4.445 h -3.5052 c -0.4318,1.0922 -1.4224,1.7272 -2.7178,1.7272 -1.016,0 -1.8288,-0.4318 -2.3368,-1.1938 -0.3302,-0.508 -0.4572,-1.1176 -0.508,-2.413 z m -9.144,-2.3622 c 0.2286,-2.1082 1.1176,-3.1242 2.6924,-3.1242 1.6256,0 2.5908,1.0922 2.7686,3.1242 z"
         style="vector-effect:none;stop-color:#000000;stop-opacity:1"
         id="path804" />
      <path
         d="m 125.48038,109.30802 h -1.9812 v -3.683 h -3.556 v 3.683 h -1.7526 v 2.3622 h 1.7526 v 8.4328 c 0,2.159 1.143,3.2258 3.4798,3.2258 0.8128,0 1.397,-0.0762 2.0574,-0.2794 v -2.4892 c -0.3556,0.0508 -0.5334,0.0762 -0.8128,0.0762 -0.9398,0 -1.1684,-0.2794 -1.1684,-1.4986 v -7.4676 h 1.9812 z"
         style="vector-effect:none;stop-color:#000000;stop-opacity:1"
         id="path806" />
      <path
         d="m 143.61598,110.50182 c -0.127,-1.6002 -0.4572,-2.6162 -1.2446,-3.6576 -1.4224,-1.8796 -3.7084,-2.921 -6.477,-2.921 -5.2324,0 -8.4836,3.7338 -8.4836,9.7282 0,5.969 3.2258,9.6774 8.382,9.6774 4.6228,0 7.6708,-2.667 7.8994,-6.9088 h -3.7084 c -0.254,2.3622 -1.7272,3.7084 -4.0894,3.7084 -2.9464,0 -4.6736,-2.3876 -4.6736,-6.4262 0,-4.0894 1.8034,-6.5278 4.8006,-6.5278 2.2098,0 3.4544,1.0668 3.9624,3.3274 z"
         style="vector-effect:none;stop-color:#000000;stop-opacity:1"
         id="path808" />
      <path
         d="m 146.23218,109.02862 v 13.716 h 3.556 v -7.2898 c 0,-2.0828 1.0414,-3.1242 3.1242,-3.1242 0.381,0 0.635,0.0254 1.1176,0.1016 v -3.6068 c -0.2032,-0.0254 -0.2794,-0.0254 -0.4318,-0.0254 -1.6256,0 -3.0226,1.0668 -3.81,2.921 v -2.6924 z"
         style="vector-effect:none;stop-color:#000000;stop-opacity:1"
         id="path810" />
      <path
         d="m 159.6434,109.02862 h -3.556 v 13.716 h 3.556 z m 0,-4.8006 h -3.556 v 3.175 h 3.556 z"
         style="vector-effect:none;stop-color:#000000;stop-opacity:1"
         id="path812" />
      <path
         d="m 169.0922,109.30802 h -1.9812 v -3.683 h -3.556 v 3.683 h -1.7526 v 2.3622 h 1.7526 v 8.4328 c 0,2.159 1.143,3.2258 3.4798,3.2258 0.8128,0 1.397,-0.0762 2.0574,-0.2794 v -2.4892 c -0.3556,0.0508 -0.5334,0.0762 -0.8128,0.0762 -0.9398,0 -1.1684,-0.2794 -1.1684,-1.4986 v -7.4676 h 1.9812 z"
         style="vector-effect:none;stop-color:#000000;stop-opacity:1"
         id="path814" />
      <path
         d="m 175.11199,109.02862 h -3.556 v 13.716 h 3.556 z m 0,-4.8006 h -3.556 v 3.175 h 3.556 z"
         style="vector-effect:none;stop-color:#000000;stop-opacity:1"
         id="path816" />
      <path
         d="m 190.17418,114.15942 c -0.254,-3.3528 -2.4638,-5.3594 -5.9182,-5.3594 -4.1148,0 -6.477,2.6924 -6.477,7.366 0,4.5212 2.3622,7.1628 6.4262,7.1628 3.3274,0 5.6388,-2.0574 5.969,-5.334 h -3.4036 c -0.4318,1.778 -1.143,2.4638 -2.5654,2.4638 -1.8034,0 -2.8702,-1.6002 -2.8702,-4.2926 0,-1.3208 0.254,-2.5146 0.6858,-3.3274 0.4064,-0.762 1.1938,-1.1684 2.2098,-1.1684 1.4478,0 2.1336,0.6858 2.54,2.4892 z"
         style="vector-effect:none;stop-color:#000000;stop-opacity:1"
         id="path818" />
    </g>
    <path
       d="m 45.10502,99.023113 0.01729,0.0624 c -2.841448,0.78161 -3.543826,1.616527 -3.69734,2.132087 -0.153515,0.51557 0.13992,1.58719 0.92847,3.03726 0.788549,1.45007 1.919231,3.13212 2.590694,5.05208 0.671465,1.91997 0.769954,4.31445 -0.711952,6.36622 -2.832498,3.92175 -7.849332,4.47539 -10.579295,5.63398 -1.36498,0.57928 -1.980782,1.07645 -2.184723,1.85768 -0.168273,0.64461 -0.05373,1.88766 0.896894,3.91687 H 48.84446 V 99.023113 Z"
       style="color:#000000;overflow:visible;fill:#96b300;fill-opacity:1;stroke:none;stroke-width:3.565;stroke-linejoin:round;stroke-dasharray:none;stop-color:#000000"
       id="path18333" />
  </g>
</svg>
